<svg xmlns="http://www.w3.org/2000/svg" version="1.1" xmlns:xlink="http://www.w3.org/1999/xlink" xmlns:svgjs="http://svgjs.dev/svgjs" width="2000" height="257" viewBox="0 0 2000 257"><g transform="matrix(1,0,0,1,-1.2121212121212466,0.8982042809766142)"><svg viewBox="0 0 396 51" data-background-color="#191919" preserveAspectRatio="xMidYMid meet" height="257" width="2000" xmlns="http://www.w3.org/2000/svg" xmlns:xlink="http://www.w3.org/1999/xlink"><g id="tight-bounds" transform="matrix(1,0,0,1,0.2400000000000091,-0.17824287287862717)"><svg viewBox="0 0 395.52 51.35648574575727" height="51.35648574575727" width="395.52"><g><svg viewBox="0 0 524.8832036048263 68.15371350151364" height="51.35648574575727" width="395.52"><g><rect width="5.929736824118506" height="66.08247184661957" x="107.91059551338196" y="1.0356208274470333" fill="#ffffff" opacity="1" stroke-width="0" stroke="transparent" fill-opacity="1" class="rect-qz-0" data-fill-palette-color="primary" rx="1%" id="qz-0" data-palette-color="#ffffff"></rect></g><g transform="matrix(1,0,0,1,129.3632036048264,1.2000050857719557)"><svg viewBox="0 0 395.52 65.75370332996972" height="65.75370332996972" width="395.52"><g id="textblocktransform"><svg viewBox="0 0 395.52 65.75370332996972" height="65.75370332996972" width="395.52" id="textblock"><g><svg viewBox="0 0 395.52 65.75370332996972" height="65.75370332996972" width="395.52"><g transform="matrix(1,0,0,1,0,0)"><svg width="395.52" viewBox="4.15 -32.5 201.68 32.95" height="65.75370332996972" data-palette-color="#ffffff"><g class="wordmark-text-0" data-fill-palette-color="primary" id="text-0"><path d="M20.7-4.3L21.05-3.85 20.65 0 4.15 0 4.5-9.65 4.15-32.1 9.45-32.1 9.15-10.1 9.25-4.3 20.7-4.3ZM37.55-32.5Q44.2-32.5 47.8-28.4 51.4-24.3 51.4-16.7L51.4-16.7Q51.4-8.5 47.55-4.03 43.7 0.45 36.6 0.45L36.6 0.45Q30 0.45 26.42-3.78 22.85-8 22.85-15.75L22.85-15.75Q22.85-23.8 26.67-28.15 30.5-32.5 37.55-32.5L37.55-32.5ZM37.15-28.3Q32.6-28.3 30.37-25.38 28.15-22.45 28.15-16.35L28.15-16.35Q28.15-9.7 30.32-6.63 32.5-3.55 37.05-3.55L37.05-3.55Q41.65-3.55 43.85-6.5 46.05-9.45 46.05-15.7L46.05-15.7Q46.05-22.25 43.87-25.28 41.7-28.3 37.15-28.3L37.15-28.3ZM73.8-4.3L74.15-3.85 73.75 0 57.25 0 57.6-9.65 57.25-32.1 62.55-32.1 62.25-10.1 62.35-4.3 73.8-4.3ZM92.04-32.45Q97.09-32.45 101.44-30.3L101.44-30.3 100.39-25.5 99.84-25.45Q97.39-26.9 95.39-27.53 93.39-28.15 91.19-28.15L91.19-28.15Q86.19-28.15 83.74-25.13 81.29-22.1 81.29-15.6L81.29-15.6Q81.29-9.4 83.59-6.63 85.89-3.85 90.89-3.85L90.89-3.85Q92.14-3.85 93.37-4.08 94.59-4.3 96.44-4.85L96.44-4.85 96.59-8.1 96.44-13.05 101.29-13.4 101.19-8.9 101.34-1.55Q95.14 0.4 90.59 0.4L90.59 0.4Q83.24 0.4 79.59-3.68 75.94-7.75 75.94-15.35L75.94-15.35Q75.94-23.65 80.12-28.05 84.29-32.45 92.04-32.45L92.04-32.45ZM132.34-32.1L132.19-15.8 132.14-12Q132.24-6.1 128.94-2.85 125.64 0.4 119.59 0.4L119.59 0.4Q113.74 0.4 110.64-2.73 107.54-5.85 107.64-11.6L107.64-11.6 107.74-16.05 107.64-32.1 112.74-32.1 112.54-12.3Q112.49-8.1 114.34-6.05 116.19-4 119.94-4L119.94-4Q127.44-4 127.39-11.8L127.39-11.8 127.14-32.1 132.34-32.1ZM145.34-32.1L145.04-10.1 145.29 0 140.04 0 140.39-9.65 140.04-32.1 145.34-32.1ZM166.19-32.3Q173.09-32.3 176.78-28.4 180.49-24.5 180.49-17.2L180.49-17.2Q180.49-8.75 176.44-4.23 172.38 0.3 164.78 0.3L164.78 0.3Q162.63 0.3 159.63 0.23 156.63 0.15 154.03 0L154.03 0 153.99 0 154.34-9.65 153.99-32.1 154.03-32.1 166.19-32.3ZM165.69-3.8Q170.28-3.8 172.71-6.85 175.13-9.9 175.13-16.05L175.13-16.05Q175.13-22.25 172.81-25.18 170.49-28.1 165.78-28.1L165.78-28.1Q163.03-28.1 159.24-27.9L159.24-27.9 158.99-10.1 159.13-4.15Q160.94-4 162.74-3.9 164.53-3.8 165.69-3.8L165.69-3.8ZM197.73-4.15L205.48-4.4 205.78-3.95 205.43 0 186.48 0 186.83-9.65 186.48-32.1 205.53-32.1 205.83-31.65 205.43-27.7 197.83-27.9 191.73-27.85 191.58-18.5 197.38-18.4 202.68-18.55 203.03-18.15 202.63-14.2 196.98-14.35 191.53-14.25 191.48-10.1 191.63-4.2 197.73-4.15Z" fill="#ffffff" data-fill-palette-color="primary"></path></g></svg></g></svg></g></svg></g></svg></g><g><svg viewBox="0 0 92.38772424605602 68.15371350151364" height="68.15371350151364" width="92.38772424605602"><g><svg xmlns="http://www.w3.org/2000/svg" viewBox="3 6 26 19.18" x="0" y="0" height="68.15371350151364" width="92.38772424605602" class="icon-icon-0" data-fill-palette-color="accent" id="icon-0"><g data-name="21-studying" fill="#ffffff" data-fill-palette-color="accent"><path d="M8 24H3V9H4V22a1 1 0 0 0 1 1H9.71a3.15 3.15 0 0 1 0.53 0 5 5 0 0 1 3.31 2.15A12.85 12.85 0 0 0 8 24Zm7-0.2l-0.09-0.1A6.86 6.86 0 0 0 9.71 21H6V6H9.71c2.58 0 4.76 2.43 5.2 5.78a0.36 0.36 0 0 0 0 0.11A8.07 8.07 0 0 1 15 13Zm2.09-0.1l-0.09 0.1V13a8.07 8.07 0 0 1 0.07-1.11 0.36 0.36 0 0 0 0-0.11C17.53 8.43 19.71 6 22.29 6H26V21H22.29a5.84 5.84 0 0 0-0.73 0.05l-0.23 0A6.88 6.88 0 0 0 17.09 23.7ZM29 24H24a13 13 0 0 0-5.55 1.18A5.08 5.08 0 0 1 21.76 23a3.15 3.15 0 0 1 0.53 0H27a1 1 0 0 0 1-1V9h1Z" fill="#ffffff" data-fill-palette-color="accent"></path></g></svg></g></svg></g></svg></g><defs></defs></svg><rect width="395.52" height="51.35648574575727" fill="none" stroke="none" visibility="hidden"></rect></g></svg></g></svg>